<svg xmlns="http://www.w3.org/2000/svg" width="76" height="76" fill="none"><mask id="a" width="60" height="44" x="8" y="16" maskUnits="userSpaceOnUse" style="mask-type:alpha"><path fill="#000" d="m8 28 12-12h36l12 12v20L56 60H20L8 48z"/></mask><g mask="url(#a)"><g filter="url(#b)"><circle cx="58" cy="18" r="10" fill="url(#c)"/></g><g filter="url(#d)"><ellipse cx="40" cy="36" fill="url(#e)" rx="10" ry="6"/></g><g filter="url(#f)"><ellipse cx="13" cy="55" fill="url(#g)" rx="9" ry="5"/></g></g><path fill="url(#h)" d="m8 28 12-12h36l12 12v20L56 60H20L8 48z"/><g filter="url(#i)"><path fill="url(#j)" fill-opacity=".6" d="M68 50 56 60h-4l13-11V25l3 3z"/></g><g filter="url(#k)"><path fill="url(#l)" fill-opacity=".6" d="m8 26 12-10h4L11 27v24l-3-3z"/></g><g filter="url(#m)"><path fill="url(#n)" d="M68 50 56 60h-4l13-11V25l3 3z"/></g><g filter="url(#o)"><path fill="url(#p)" d="m8 26 12-10h4L11 27v24l-3-3z"/></g><g filter="url(#q)"><path fill="url(#r)" fill-opacity=".6" d="M16 56h44l-4 4H20z"/></g><g filter="url(#s)"><path fill="url(#t)" fill-opacity=".6" d="M60 20H16l4-4h36z"/></g><g filter="url(#u)"><path fill="#FC83D4" d="M48 38.264V46h-4.52v-7.264c0-1.793-.66-3.019-2.26-3.019-1.224 0-1.978.849-2.26 1.604-.095.283-.189.66-.189 1.132V46h-4.52s.094-12.264 0-13.49h4.52v1.886c.565-.943 1.695-2.264 4.05-2.264 2.919 0 5.179 1.981 5.179 6.132M29.543 26C28.036 26 27 27.038 27 28.358s.942 2.359 2.448 2.359c1.601 0 2.543-1.038 2.543-2.358.094-1.416-.848-2.359-2.448-2.359m-2.26 20h4.52V32.51h-4.52z"/></g><defs><linearGradient id="c" x1="58" x2="58" y1="8" y2="28" gradientUnits="userSpaceOnUse"><stop stop-color="#1B4CFA"/><stop offset="1" stop-color="#F5A1FC"/></linearGradient><linearGradient id="e" x1="40" x2="40" y1="30" y2="42" gradientUnits="userSpaceOnUse"><stop stop-color="#1B4CFA"/><stop offset="1" stop-color="#F5A1FC"/></linearGradient><linearGradient id="g" x1="13" x2="13" y1="50" y2="60" gradientUnits="userSpaceOnUse"><stop stop-color="#1B4CFA"/><stop offset="1" stop-color="#F5A1FC"/></linearGradient><linearGradient id="h" x1="-12" x2="80.5" y1="38" y2="38" gradientUnits="userSpaceOnUse"><stop stop-color="#E32E9B" stop-opacity=".3"/><stop offset=".5" stop-color="#B922A1" stop-opacity="0"/><stop offset="1" stop-color="#8F16A7" stop-opacity=".3"/></linearGradient><linearGradient id="j" x1="60" x2="60" y1="60" y2="25" gradientUnits="userSpaceOnUse"><stop stop-color="#2602FF" stop-opacity="0"/><stop offset="1" stop-color="#48C3E9"/></linearGradient><linearGradient id="l" x1="16" x2="16" y1="16" y2="51" gradientUnits="userSpaceOnUse"><stop stop-color="#2602FF" stop-opacity="0"/><stop offset="1" stop-color="#48C3E9"/></linearGradient><linearGradient id="n" x1="68" x2="52" y1="42.5" y2="42.5" gradientUnits="userSpaceOnUse"><stop stop-color="#E32E9B"/><stop offset="1" stop-color="#8F16A7"/></linearGradient><linearGradient id="p" x1="8" x2="24" y1="33.5" y2="33.5" gradientUnits="userSpaceOnUse"><stop stop-color="#E32E9B"/><stop offset="1" stop-color="#8F16A7"/></linearGradient><linearGradient id="r" x1="38" x2="38" y1="56" y2="60" gradientUnits="userSpaceOnUse"><stop stop-color="#fff" stop-opacity="0"/><stop offset="1" stop-color="#48C3E9"/></linearGradient><linearGradient id="t" x1="38" x2="38" y1="20" y2="16" gradientUnits="userSpaceOnUse"><stop stop-color="#fff" stop-opacity="0"/><stop offset="1" stop-color="#48C3E9"/></linearGradient><filter id="b" width="68" height="68" x="24" y="-16" color-interpolation-filters="sRGB" filterUnits="userSpaceOnUse"><feFlood flood-opacity="0" result="BackgroundImageFix"/><feBlend in="SourceGraphic" in2="BackgroundImageFix" result="shape"/><feGaussianBlur result="effect1_foregroundBlur_9081_16755" stdDeviation="12"/></filter><filter id="d" width="92" height="84" x="-6" y="-6" color-interpolation-filters="sRGB" filterUnits="userSpaceOnUse"><feFlood flood-opacity="0" result="BackgroundImageFix"/><feBlend in="SourceGraphic" in2="BackgroundImageFix" result="shape"/><feGaussianBlur result="effect1_foregroundBlur_9081_16755" stdDeviation="18"/></filter><filter id="f" width="66" height="58" x="-20" y="26" color-interpolation-filters="sRGB" filterUnits="userSpaceOnUse"><feFlood flood-opacity="0" result="BackgroundImageFix"/><feBlend in="SourceGraphic" in2="BackgroundImageFix" result="shape"/><feGaussianBlur result="effect1_foregroundBlur_9081_16755" stdDeviation="12"/></filter><filter id="i" width="24" height="43" x="48" y="21" color-interpolation-filters="sRGB" filterUnits="userSpaceOnUse"><feFlood flood-opacity="0" result="BackgroundImageFix"/><feBlend in="SourceGraphic" in2="BackgroundImageFix" result="shape"/><feGaussianBlur result="effect1_foregroundBlur_9081_16755" stdDeviation="2"/></filter><filter id="k" width="24" height="43" x="4" y="12" color-interpolation-filters="sRGB" filterUnits="userSpaceOnUse"><feFlood flood-opacity="0" result="BackgroundImageFix"/><feBlend in="SourceGraphic" in2="BackgroundImageFix" result="shape"/><feGaussianBlur result="effect1_foregroundBlur_9081_16755" stdDeviation="2"/></filter><filter id="m" width="40" height="59" x="40" y="13" color-interpolation-filters="sRGB" filterUnits="userSpaceOnUse"><feFlood flood-opacity="0" result="BackgroundImageFix"/><feGaussianBlur in="BackgroundImageFix" stdDeviation="6"/><feComposite in2="SourceAlpha" operator="in" result="effect1_backgroundBlur_9081_16755"/><feBlend in="SourceGraphic" in2="effect1_backgroundBlur_9081_16755" result="shape"/></filter><filter id="o" width="40" height="59" x="-4" y="4" color-interpolation-filters="sRGB" filterUnits="userSpaceOnUse"><feFlood flood-opacity="0" result="BackgroundImageFix"/><feGaussianBlur in="BackgroundImageFix" stdDeviation="6"/><feComposite in2="SourceAlpha" operator="in" result="effect1_backgroundBlur_9081_16755"/><feBlend in="SourceGraphic" in2="effect1_backgroundBlur_9081_16755" result="shape"/></filter><filter id="q" width="76" height="36" x="0" y="40" color-interpolation-filters="sRGB" filterUnits="userSpaceOnUse"><feFlood flood-opacity="0" result="BackgroundImageFix"/><feBlend in="SourceGraphic" in2="BackgroundImageFix" result="shape"/><feGaussianBlur result="effect1_foregroundBlur_9081_16755" stdDeviation="8"/></filter><filter id="s" width="76" height="36" x="0" y="0" color-interpolation-filters="sRGB" filterUnits="userSpaceOnUse"><feFlood flood-opacity="0" result="BackgroundImageFix"/><feBlend in="SourceGraphic" in2="BackgroundImageFix" result="shape"/><feGaussianBlur result="effect1_foregroundBlur_9081_16755" stdDeviation="8"/></filter><filter id="u" width="33" height="32" x="21" y="20" color-interpolation-filters="sRGB" filterUnits="userSpaceOnUse"><feFlood flood-opacity="0" result="BackgroundImageFix"/><feColorMatrix in="SourceAlpha" result="hardAlpha" values="0 0 0 0 0 0 0 0 0 0 0 0 0 0 0 0 0 0 127 0"/><feOffset/><feGaussianBlur stdDeviation="3"/><feComposite in2="hardAlpha" operator="out"/><feColorMatrix values="0 0 0 0 1 0 0 0 0 0.00833333 0 0 0 0 0.603333 0 0 0 1 0"/><feBlend in2="BackgroundImageFix" result="effect1_dropShadow_9081_16755"/><feBlend in="SourceGraphic" in2="effect1_dropShadow_9081_16755" result="shape"/></filter></defs></svg>