<svg width="76" height="76" viewBox="0 0 76 76" fill="none" xmlns="http://www.w3.org/2000/svg">
<mask id="mask0_9127_17494" style="mask-type:alpha" maskUnits="userSpaceOnUse" x="8" y="16" width="60" height="44">
<path d="M8 28L20 16H56L68 28V48L56 60H20L8 48V28Z" fill="black"/>
</mask>
<g mask="url(#mask0_9127_17494)">
<g filter="url(#filter0_f_9127_17494)">
<circle cx="58" cy="18" r="10" fill="url(#paint0_linear_9127_17494)"/>
</g>
<g filter="url(#filter1_f_9127_17494)">
<ellipse cx="40" cy="36" rx="10" ry="6" fill="url(#paint1_linear_9127_17494)"/>
</g>
<g filter="url(#filter2_f_9127_17494)">
<ellipse cx="13" cy="55" rx="9" ry="5" fill="url(#paint2_linear_9127_17494)"/>
</g>
</g>
<g filter="url(#filter3_f_9127_17494)">
<path d="M68 50L56 60L52 60L65 49L65 25L68 28L68 50Z" fill="url(#paint3_linear_9127_17494)" fill-opacity="0.6"/>
</g>
<g filter="url(#filter4_f_9127_17494)">
<path d="M8 26L20 16H24L11 27V51L8 48V26Z" fill="url(#paint4_linear_9127_17494)" fill-opacity="0.6"/>
</g>
<g filter="url(#filter5_b_9127_17494)">
<path d="M68 50L56 60L52 60L65 49L65 25L68 28L68 50Z" fill="url(#paint5_linear_9127_17494)"/>
</g>
<g filter="url(#filter6_b_9127_17494)">
<path d="M8 26L20 16H24L11 27V51L8 48V26Z" fill="url(#paint6_linear_9127_17494)"/>
</g>
<g filter="url(#filter7_f_9127_17494)">
<path d="M16 56H60L56 60H20L16 56Z" fill="url(#paint7_linear_9127_17494)" fill-opacity="0.6"/>
</g>
<g filter="url(#filter8_f_9127_17494)">
<path d="M60 20L16 20L20 16L56 16L60 20Z" fill="url(#paint8_linear_9127_17494)" fill-opacity="0.6"/>
</g>
<g filter="url(#filter9_d_9127_17494)">
<path d="M26.4208 37.5598L31.9386 39.7219L34.0895 46.9942C34.183 47.4856 34.7442 47.5839 35.1182 47.2891L38.2044 44.6356C38.485 44.3408 38.9526 44.3408 39.3267 44.6356L44.8443 48.8615C45.2184 49.1563 45.7796 48.9598 45.8731 48.4684L49.988 27.8306C50.0815 27.3392 49.6139 26.8478 49.1463 27.0444L26.4208 36.2823C25.8597 36.4788 25.8597 37.3633 26.4208 37.5598ZM33.809 38.6409L44.6573 31.6633C44.8443 31.565 45.0314 31.8599 44.8443 31.9581L35.9599 40.7046C35.6794 40.9995 35.3988 41.3926 35.3988 41.8839L35.1182 44.2425C35.1182 44.5374 34.6506 44.6356 34.5571 44.2425L33.4349 39.9184C33.1543 39.4271 33.3414 38.8374 33.809 38.6409Z" fill="white"/>
</g>
<defs>
<filter id="filter0_f_9127_17494" x="24" y="-16" width="68" height="68" filterUnits="userSpaceOnUse" color-interpolation-filters="sRGB">
<feFlood flood-opacity="0" result="BackgroundImageFix"/>
<feBlend mode="normal" in="SourceGraphic" in2="BackgroundImageFix" result="shape"/>
<feGaussianBlur stdDeviation="12" result="effect1_foregroundBlur_9127_17494"/>
</filter>
<filter id="filter1_f_9127_17494" x="-6" y="-6" width="92" height="84" filterUnits="userSpaceOnUse" color-interpolation-filters="sRGB">
<feFlood flood-opacity="0" result="BackgroundImageFix"/>
<feBlend mode="normal" in="SourceGraphic" in2="BackgroundImageFix" result="shape"/>
<feGaussianBlur stdDeviation="18" result="effect1_foregroundBlur_9127_17494"/>
</filter>
<filter id="filter2_f_9127_17494" x="-20" y="26" width="66" height="58" filterUnits="userSpaceOnUse" color-interpolation-filters="sRGB">
<feFlood flood-opacity="0" result="BackgroundImageFix"/>
<feBlend mode="normal" in="SourceGraphic" in2="BackgroundImageFix" result="shape"/>
<feGaussianBlur stdDeviation="12" result="effect1_foregroundBlur_9127_17494"/>
</filter>
<filter id="filter3_f_9127_17494" x="48" y="21" width="24" height="43" filterUnits="userSpaceOnUse" color-interpolation-filters="sRGB">
<feFlood flood-opacity="0" result="BackgroundImageFix"/>
<feBlend mode="normal" in="SourceGraphic" in2="BackgroundImageFix" result="shape"/>
<feGaussianBlur stdDeviation="2" result="effect1_foregroundBlur_9127_17494"/>
</filter>
<filter id="filter4_f_9127_17494" x="4" y="12" width="24" height="43" filterUnits="userSpaceOnUse" color-interpolation-filters="sRGB">
<feFlood flood-opacity="0" result="BackgroundImageFix"/>
<feBlend mode="normal" in="SourceGraphic" in2="BackgroundImageFix" result="shape"/>
<feGaussianBlur stdDeviation="2" result="effect1_foregroundBlur_9127_17494"/>
</filter>
<filter id="filter5_b_9127_17494" x="40" y="13" width="40" height="59" filterUnits="userSpaceOnUse" color-interpolation-filters="sRGB">
<feFlood flood-opacity="0" result="BackgroundImageFix"/>
<feGaussianBlur in="BackgroundImageFix" stdDeviation="6"/>
<feComposite in2="SourceAlpha" operator="in" result="effect1_backgroundBlur_9127_17494"/>
<feBlend mode="normal" in="SourceGraphic" in2="effect1_backgroundBlur_9127_17494" result="shape"/>
</filter>
<filter id="filter6_b_9127_17494" x="-4" y="4" width="40" height="59" filterUnits="userSpaceOnUse" color-interpolation-filters="sRGB">
<feFlood flood-opacity="0" result="BackgroundImageFix"/>
<feGaussianBlur in="BackgroundImageFix" stdDeviation="6"/>
<feComposite in2="SourceAlpha" operator="in" result="effect1_backgroundBlur_9127_17494"/>
<feBlend mode="normal" in="SourceGraphic" in2="effect1_backgroundBlur_9127_17494" result="shape"/>
</filter>
<filter id="filter7_f_9127_17494" x="0" y="40" width="76" height="36" filterUnits="userSpaceOnUse" color-interpolation-filters="sRGB">
<feFlood flood-opacity="0" result="BackgroundImageFix"/>
<feBlend mode="normal" in="SourceGraphic" in2="BackgroundImageFix" result="shape"/>
<feGaussianBlur stdDeviation="8" result="effect1_foregroundBlur_9127_17494"/>
</filter>
<filter id="filter8_f_9127_17494" x="0" y="0" width="76" height="36" filterUnits="userSpaceOnUse" color-interpolation-filters="sRGB">
<feFlood flood-opacity="0" result="BackgroundImageFix"/>
<feBlend mode="normal" in="SourceGraphic" in2="BackgroundImageFix" result="shape"/>
<feGaussianBlur stdDeviation="8" result="effect1_foregroundBlur_9127_17494"/>
</filter>
<filter id="filter9_d_9127_17494" x="20" y="21" width="36" height="34" filterUnits="userSpaceOnUse" color-interpolation-filters="sRGB">
<feFlood flood-opacity="0" result="BackgroundImageFix"/>
<feColorMatrix in="SourceAlpha" type="matrix" values="0 0 0 0 0 0 0 0 0 0 0 0 0 0 0 0 0 0 127 0" result="hardAlpha"/>
<feOffset/>
<feGaussianBlur stdDeviation="3"/>
<feComposite in2="hardAlpha" operator="out"/>
<feColorMatrix type="matrix" values="0 0 0 0 1 0 0 0 0 0.00833333 0 0 0 0 0.603333 0 0 0 1 0"/>
<feBlend mode="normal" in2="BackgroundImageFix" result="effect1_dropShadow_9127_17494"/>
<feBlend mode="normal" in="SourceGraphic" in2="effect1_dropShadow_9127_17494" result="shape"/>
</filter>
<linearGradient id="paint0_linear_9127_17494" x1="58" y1="8" x2="58" y2="28" gradientUnits="userSpaceOnUse">
<stop stop-color="#1B4CFA"/>
<stop offset="1" stop-color="#F5A1FC"/>
</linearGradient>
<linearGradient id="paint1_linear_9127_17494" x1="40" y1="30" x2="40" y2="42" gradientUnits="userSpaceOnUse">
<stop stop-color="#1B4CFA"/>
<stop offset="1" stop-color="#F5A1FC"/>
</linearGradient>
<linearGradient id="paint2_linear_9127_17494" x1="13" y1="50" x2="13" y2="60" gradientUnits="userSpaceOnUse">
<stop stop-color="#1B4CFA"/>
<stop offset="1" stop-color="#F5A1FC"/>
</linearGradient>
<linearGradient id="paint3_linear_9127_17494" x1="60" y1="60" x2="60" y2="25" gradientUnits="userSpaceOnUse">
<stop stop-color="#2602FF" stop-opacity="0"/>
<stop offset="1" stop-color="#48C3E9"/>
</linearGradient>
<linearGradient id="paint4_linear_9127_17494" x1="16" y1="16" x2="16" y2="51" gradientUnits="userSpaceOnUse">
<stop stop-color="#2602FF" stop-opacity="0"/>
<stop offset="1" stop-color="#48C3E9"/>
</linearGradient>
<linearGradient id="paint5_linear_9127_17494" x1="29" y1="-1" x2="47.5001" y2="73.5" gradientUnits="userSpaceOnUse">
<stop stop-color="#1B4CFA"/>
<stop offset="1" stop-color="#F5A1FC"/>
</linearGradient>
<linearGradient id="paint6_linear_9127_17494" x1="47" y1="77" x2="28.4999" y2="2.50003" gradientUnits="userSpaceOnUse">
<stop stop-color="#1B4CFA"/>
<stop offset="1" stop-color="#F5A1FC"/>
</linearGradient>
<linearGradient id="paint7_linear_9127_17494" x1="38" y1="56" x2="38" y2="60" gradientUnits="userSpaceOnUse">
<stop stop-color="white" stop-opacity="0"/>
<stop offset="1" stop-color="#48C3E9"/>
</linearGradient>
<linearGradient id="paint8_linear_9127_17494" x1="38" y1="20" x2="38" y2="16" gradientUnits="userSpaceOnUse">
<stop stop-color="white" stop-opacity="0"/>
<stop offset="1" stop-color="#48C3E9"/>
</linearGradient>
</defs>
</svg>
