<svg width="1826" height="370" viewBox="0 0 1826 370" fill="none" xmlns="http://www.w3.org/2000/svg">
<g filter="url(#filter0_di_9127_17349)">
<path d="M321.31 207.44L320.662 209.384L325.846 217.484L313.21 252.476H94.8344L89.6504 244.376H87.7064L100.99 207.44H321.31ZM133.714 264.14L138.898 272.24L122.698 316.628H212.122C217.63 315.008 222.166 313.064 225.406 310.472C228.646 308.204 231.562 305.288 234.154 301.4L248.41 262.196H301.546L300.574 264.14L305.758 272.24L284.05 332.18C281.782 335.744 278.542 339.308 274.654 342.548C270.766 346.112 266.23 349.352 261.37 352.268C256.51 355.184 251.326 357.452 246.142 359.396C240.958 361.34 236.098 361.988 231.562 361.988H54.9824L49.7984 353.888H47.8544L81.2264 262.196H134.686L133.714 264.14ZM103.582 211.328L92.8904 240.488H305.434L316.126 211.328H103.582ZM129.178 266.084H83.4944L53.0384 350H226.702C230.59 350 235.126 349.352 239.986 347.408C244.846 345.788 249.706 343.52 254.242 340.928C258.778 338.336 262.99 335.42 266.878 332.18C270.766 328.94 273.682 325.7 275.626 322.46L296.038 266.084H250.678L237.394 303.02C234.154 307.556 230.914 311.12 227.026 313.712C223.138 316.628 218.278 318.896 212.446 320.516H109.414L129.178 266.084ZM343.358 207.44H395.846L395.198 209.384L400.382 217.484L387.746 252.476H337.202L332.018 244.376H330.074L343.358 207.44ZM375.11 264.14L380.294 272.24L347.894 361.988H297.35L292.166 353.888H290.222L323.594 262.196H376.082L375.11 264.14ZM335.258 240.488H379.97L390.662 211.328H345.95L335.258 240.488ZM370.574 266.084H325.862L295.406 350H340.118L370.574 266.084ZM638.349 207.44L637.701 209.384L642.885 217.484L630.249 252.476H411.873L406.689 244.376H404.745L406.689 238.544C409.281 232.712 413.169 227.852 418.029 223.964C422.565 220.076 427.749 217.16 432.933 214.568C438.117 211.976 442.977 210.356 447.837 209.06C452.697 208.088 456.909 207.44 460.149 207.44H638.349ZM482.829 299.456H480.885L494.493 262.196H598.821C602.061 262.844 605.301 264.14 608.541 266.732C611.781 269.324 614.049 273.212 615.669 278.072L617.289 280.664H616.965L617.613 280.988C619.881 284.876 621.177 289.736 621.825 295.568C622.149 301.724 620.853 308.852 617.937 316.628V317.276C615.669 323.108 612.429 328.94 608.217 334.124C604.005 339.632 599.145 344.492 593.961 348.38C588.453 352.592 582.621 355.832 576.789 358.424C570.957 361.016 565.125 361.988 559.941 361.988H372.021L366.837 353.888H364.893L398.265 262.196H451.725L450.753 264.14L455.937 272.24L439.737 316.628H547.305C550.869 316.628 553.785 315.656 555.729 313.388C557.673 311.444 558.645 309.824 559.293 308.528L559.617 307.556H488.013L482.829 299.456ZM458.853 211.328C455.937 211.328 452.373 211.976 447.837 212.948C443.301 213.92 438.765 215.54 434.229 217.484C429.369 219.752 424.833 222.668 420.621 225.908C416.409 229.472 413.169 233.684 410.577 238.868L409.929 240.488H622.473L633.165 211.328H458.853ZM555.081 350C560.265 350 565.449 349.028 570.957 346.76C576.465 344.492 581.649 341.252 586.833 337.364C591.693 333.476 596.229 329.264 600.117 324.08C604.005 319.22 607.245 314.036 609.189 308.204L609.513 307.556C611.457 301.076 612.753 295.568 612.753 290.384C612.753 285.524 611.781 281.312 610.485 277.748C609.189 274.184 607.245 271.268 604.653 269.324C602.061 267.38 599.469 266.408 596.877 266.084H496.761L486.069 295.568H555.729C560.589 295.568 563.181 297.188 563.829 300.104C564.153 303.344 563.829 305.936 563.181 308.528C562.533 309.176 561.885 310.472 561.237 311.768C560.265 313.064 559.293 314.36 557.997 315.656C556.701 316.952 555.081 318.248 553.137 319.22C551.193 320.192 548.601 320.516 546.009 320.516H426.453L446.217 266.084H400.533L370.077 350H555.081ZM671.787 207.44H724.275L723.627 209.384L728.811 217.484L716.175 252.476H665.631L660.447 244.376H658.503L671.787 207.44ZM703.539 264.14L708.723 272.24L676.323 361.988H625.779L620.595 353.888H618.651L652.023 262.196H704.511L703.539 264.14ZM663.687 240.488H708.399L719.091 211.328H674.379L663.687 240.488ZM699.003 266.084H654.291L623.835 350H668.547L699.003 266.084ZM829.092 244.376H827.148L829.416 237.896C831.36 234.656 833.952 231.092 837.84 227.204C841.728 223.64 845.94 220.4 850.8 217.484C855.66 214.568 860.844 212.3 866.352 210.356C871.536 208.412 877.044 207.44 882.552 207.44H1060.75L1060.1 209.384L1065.29 217.484L1052.65 252.476H834.276L829.092 244.376ZM862.14 316.628H1020.58L1019.93 318.572L1025.11 326.672L1012.48 361.988H794.424L789.24 353.888H787.296L820.668 262.196H874.128L873.156 264.14L878.34 272.24L862.14 316.628ZM1044.88 240.488L1055.57 211.328H881.256C876.072 211.328 871.212 212.3 866.352 213.92C861.168 215.864 856.632 217.808 852.42 220.4C847.884 222.992 843.996 225.908 840.756 229.148C837.192 232.388 834.6 235.628 832.98 238.868L832.332 240.488H1044.88ZM1004.7 350L1015.39 320.516H848.856L868.62 266.084H822.936L792.48 350H1004.7ZM1303.12 207.44L1302.47 209.384L1307.65 217.484L1295.02 252.476H1076.64L1071.46 244.376H1069.51L1071.46 238.868C1072.75 234.98 1075.67 231.092 1079.88 227.204C1083.77 223.316 1088.63 220.076 1093.81 217.16C1099 214.244 1104.18 211.976 1109.69 210.032C1115.2 208.412 1120.38 207.44 1124.92 207.44H1303.12ZM1104.83 316.628H1193.28C1200.09 315.332 1204.95 313.712 1207.54 311.768C1210.13 309.824 1212.72 306.26 1215.31 301.724L1229.89 262.196H1283.35L1282.38 264.14L1287.57 272.24L1265.86 332.504C1264.56 335.744 1262.29 338.984 1258.41 342.224C1254.52 345.464 1250.31 348.704 1245.45 351.62C1240.26 354.86 1235.4 357.128 1230.22 359.072C1225.03 361.016 1220.5 361.988 1216.61 361.988H1036.79L1031.61 353.888H1029.66L1063.03 262.196H1116.82L1115.85 264.14L1121.03 272.24L1104.83 316.628ZM1123.62 211.328C1119.41 211.328 1114.87 212.3 1109.69 213.596C1104.51 215.216 1099.65 217.16 1095.11 219.752C1090.57 222.344 1086.36 225.584 1082.8 228.824C1078.91 232.064 1076.64 235.628 1075.35 238.868L1074.7 240.488H1287.24L1297.93 211.328H1123.62ZM1211.75 350C1215.31 350 1219.53 349.352 1224.39 347.408C1228.92 345.464 1233.78 343.196 1238.32 340.604C1242.85 338.012 1246.74 335.42 1250.31 332.18C1253.55 328.94 1255.81 326.024 1257.11 323.432L1277.85 266.084H1232.16L1219.2 302.048C1217.58 304.964 1215.96 307.232 1214.67 309.176C1213.37 311.12 1211.75 313.064 1209.81 314.36C1207.86 315.656 1205.59 316.952 1203 317.924C1200.41 318.896 1197.17 319.868 1193.28 320.516H1091.55L1111.31 266.084H1065.3L1034.85 350H1211.75ZM1325.17 207.44H1463.19C1475.5 207.44 1486.19 211.004 1495.91 218.132C1505.31 225.26 1513.41 234.008 1520.21 244.376H1518.92L1524.1 252.476H1319.01L1313.83 244.376H1311.88L1325.17 207.44ZM1525.4 262.196C1525.4 264.14 1525.4 265.112 1525.72 265.76L1529.93 272.24C1531.23 280.016 1531.23 287.792 1530.58 295.568H1496.56C1499.15 300.428 1501.75 305.612 1503.69 311.444C1505.63 317.276 1506.93 323.108 1507.9 328.94C1508.55 334.772 1508.87 340.604 1508.55 346.436C1508.23 352.268 1507.25 357.452 1505.63 361.988H1449.58L1444.4 353.888H1442.45C1443.75 342.872 1444.4 334.448 1444.4 328.616C1444.4 323.108 1444.07 319.544 1443.43 317.6C1442.78 316.952 1442.45 316.304 1442.13 315.656C1441.81 315.008 1441.48 314.036 1441.16 313.388C1439.21 311.768 1437.59 310.472 1435.97 309.176C1434.35 308.204 1432.73 307.556 1431.11 307.556H1350.44L1330.67 361.988H1279.16L1273.97 353.888H1272.03L1305.4 262.196H1525.4ZM1317.07 240.488H1512.44C1507.25 232.388 1500.45 225.584 1492.03 219.752C1483.6 214.244 1473.56 211.328 1461.89 211.328H1327.76L1317.07 240.488ZM1307.67 266.084L1277.21 350H1322.9L1342.66 295.568H1426.25C1428.2 295.568 1430.14 296.216 1432.41 297.512C1434.35 298.808 1436.62 300.104 1438.57 302.048C1440.51 303.992 1442.13 306.26 1443.75 308.528C1445.05 310.796 1446.34 313.064 1447.31 315.008C1447.96 316.952 1448.61 320.516 1448.61 326.024C1448.61 331.856 1448.29 339.632 1446.99 350H1497.86C1499.48 345.464 1500.45 340.28 1500.45 334.448C1500.45 325.7 1498.83 316.628 1495.91 307.556C1493 298.484 1489.11 290.708 1484.57 283.58H1522.16C1522.81 278.396 1522.48 272.564 1521.51 266.084H1307.67ZM1739.7 244.376H1737.76L1751.04 207.44H1804.18L1803.53 209.384L1808.72 217.484L1796.08 252.476H1744.89L1739.7 244.376ZM1564.42 244.376H1562.48L1575.76 207.44H1606.54C1613.67 207.44 1621.12 208.412 1628.9 209.708C1636.67 211.328 1644.77 213.272 1652.87 215.864C1660.65 218.456 1668.75 221.696 1676.52 225.584C1684.3 229.472 1691.43 233.36 1698.56 237.896L1697.26 239.516L1702.77 247.616L1699.85 252.476H1569.6L1564.42 244.376ZM1608.48 264.14L1613.67 272.24L1581.27 361.988H1529.75L1524.57 353.888H1522.62L1556 262.196H1609.46L1608.48 264.14ZM1783.44 264.14L1788.63 272.24L1756.23 361.988H1713.46L1708.28 353.888H1706.66C1702.12 335.096 1694.02 317.924 1682.36 302.372C1672.64 292.004 1661.3 283.904 1648.34 277.424L1643.8 270.296C1642.5 270.296 1641.53 269.648 1640.88 269L1644.77 262.196H1726.1L1729.34 267.38L1731.28 262.196H1784.42L1783.44 264.14ZM1788.3 240.488L1799 211.328H1753.64L1742.94 240.488H1788.3ZM1693.7 240.488C1686.89 236.276 1679.76 232.388 1672.31 228.824C1664.86 225.26 1657.41 222.02 1649.63 219.428C1641.86 216.836 1634.4 214.892 1626.95 213.596C1619.18 212.3 1612.05 211.328 1605.24 211.328H1578.35L1567.66 240.488H1693.7ZM1603.95 266.084H1558.26L1527.81 350H1573.49L1603.95 266.084ZM1778.91 266.084H1733.55L1729.98 276.452C1728.69 274.832 1727.72 273.212 1726.42 271.268C1725.12 269.648 1724.15 268.028 1723.18 266.084H1645.1C1653.2 269.972 1660.97 275.156 1668.1 280.988C1675.23 286.82 1681.38 293.624 1687.22 300.752C1692.72 307.88 1697.58 315.656 1701.47 324.08C1705.36 332.504 1708.28 341.252 1710.22 350H1748.45L1778.91 266.084Z" fill="url(#paint0_linear_9127_17349)"/>
</g>
<g filter="url(#filter1_di_9127_17349)">
<path d="M126.354 89.04H89.8498C90.4738 87.792 91.4098 86.232 92.6578 84.36H286.41L280.482 100.584H169.722C164.73 102.456 159.738 104.952 154.746 108.696C149.754 112.44 144.138 117.432 138.21 123.984C133.842 128.976 130.098 133.656 126.978 138.648C123.858 143.64 120.738 148.32 117.618 153H66.4498C67.6978 148.632 70.5058 143.952 74.5618 138.336C78.3058 132.72 82.9858 127.104 88.6018 121.488C93.9058 115.872 99.8338 109.944 106.386 104.328C112.938 98.712 119.49 93.72 126.354 89.04ZM93.5938 83.112C96.0898 79.368 98.8978 75.624 102.642 71.256H163.17L162.858 72.192H290.778L287.034 83.112H93.5938ZM140.082 39.432C142.266 38.184 144.45 36.624 146.946 35.376C149.13 34.128 151.314 32.88 153.81 31.632H321.042L317.922 39.432H140.082ZM121.05 53.784C122.61 52.224 124.482 50.664 126.354 49.104C128.226 47.856 130.098 46.296 132.282 44.736H316.05L315.114 47.544H195.306L189.066 49.728C186.882 50.352 184.386 51.912 181.578 53.784H121.05ZM169.722 24.768C179.706 21.336 189.378 19.464 198.426 19.464H325.41L323.538 24.768H169.722ZM105.45 68.448L110.442 63.456C112.314 61.584 114.186 60.024 116.058 58.152H175.65C172.842 60.024 170.658 61.896 169.098 63.456C167.538 65.016 166.29 66.576 165.042 68.448H105.45ZM343.201 153H300.145L325.105 84.36H368.161L343.201 153ZM325.729 83.112L329.785 71.256H372.841L368.785 83.112H325.729ZM331.033 68.448L334.777 58.152H377.833L374.089 68.448H331.033ZM336.337 53.784L339.457 44.736H382.513L379.393 53.784H336.337ZM341.329 39.432L344.449 31.632H387.505L384.385 39.432H341.329ZM348.817 19.464H391.873L390.001 24.768H346.945L348.817 19.464ZM574.469 153H537.653C534.845 139.272 529.541 126.792 522.053 114.936C514.565 103.392 505.205 93.096 494.597 84.36H599.429L574.469 153ZM405.989 153H361.997L386.957 84.36H430.949L405.989 153ZM466.205 68.448C461.525 66.888 456.845 65.64 452.477 64.392C448.109 63.456 443.429 62.832 439.061 62.208L436.877 68.448H392.885L396.629 58.152H536.405C538.277 60.024 539.837 61.584 541.709 63.456L547.013 68.448H466.205ZM493.037 83.112C489.917 80.928 486.485 78.744 483.365 76.872C479.933 75 476.501 73.128 473.069 71.256H549.197C550.757 73.128 552.005 75 553.253 76.872C554.501 78.744 555.437 80.304 556.685 82.176L560.429 71.256H604.109L600.053 83.112H493.037ZM517.373 44.736C519.869 46.296 522.053 47.856 524.237 49.104C526.109 50.664 528.293 52.224 530.789 53.784H398.189L401.309 44.736H517.373ZM491.789 31.632C497.405 34.128 503.021 36.936 508.325 39.432H403.181L406.301 31.632H491.789ZM387.581 83.112L391.637 71.256H435.629L431.573 83.112H387.581ZM561.677 68.448L565.421 58.152H609.101L605.357 68.448H561.677ZM566.981 53.784L570.101 44.736H613.781L610.661 53.784H566.981ZM571.973 39.432L575.093 31.632H618.773L615.653 39.432H571.973ZM408.797 24.768L410.669 19.464H436.565C446.861 19.464 458.405 21.336 471.509 24.768H408.797ZM577.589 24.768L579.461 19.464H623.141L621.269 24.768H577.589ZM797.927 153H593.255L618.215 84.36H662.207L647.543 124.608H764.231L778.895 84.36H822.887L797.927 153ZM832.559 31.632C833.495 32.88 834.119 34.44 834.743 35.688C835.055 36.936 835.367 38.184 835.991 39.432H634.439L637.559 31.632H832.559ZM675.623 47.856L673.439 53.784H629.447L632.567 44.736H836.615C836.615 45.36 836.615 45.672 836.615 45.672C836.615 45.672 836.615 45.984 836.927 45.984L834.119 53.784H783.575C781.703 51.288 778.895 49.416 774.527 47.856H675.623ZM809.159 19.464C814.775 19.464 820.391 21.336 825.695 24.768H640.055L641.927 19.464H809.159ZM618.839 83.112L622.895 71.256H666.887L662.831 83.112H618.839ZM779.519 83.112L783.575 71.256H827.567L823.511 83.112H779.519ZM786.071 64.704V61.272C786.071 60.024 785.759 58.776 785.759 58.152H832.559L828.815 68.448H784.823L786.071 64.704ZM624.143 68.448L627.887 58.152H671.879L668.135 68.448H624.143ZM1087.76 153H917.408L927.704 124.608H1084.64L1093.38 100.584H990.728C985.736 99.648 981.056 97.776 977.312 94.968C973.568 92.16 970.136 88.728 967.016 84.36H1143.3L1123.95 137.4C1119.58 142.392 1114.9 146.136 1109.29 148.632C1103.67 151.44 1096.5 153 1087.76 153ZM1023.8 72.192H1103.67L1103.98 71.256H1147.98L1143.92 83.112H966.392C963.896 79.992 961.4 75.936 959.528 71.256H1019.74C1020.99 71.88 1022.24 72.192 1023.8 72.192ZM1009.76 58.152C1010.07 60.024 1010.7 61.896 1011.94 63.768C1013.19 65.64 1014.44 67.2 1016 68.448H958.592C957.344 65.328 956.096 61.896 955.472 58.152H1009.76ZM1006.64 44.736C1006.64 45.984 1006.95 46.92 1006.95 47.544C1006.95 48.48 1007.26 49.416 1007.26 50.04C1007.26 50.976 1007.26 51.912 1007.89 53.16C1007.89 53.784 1007.89 53.784 1008.2 53.784H954.536C953.912 52.536 953.6 50.976 953.6 49.416C953.288 48.168 952.976 46.608 952.664 44.736H1006.64ZM1105.23 68.448L1108.98 58.152H1152.97L1149.22 68.448H1105.23ZM1005.7 31.632C1005.7 33.192 1005.7 34.752 1005.7 36C1005.7 37.248 1006.02 38.496 1006.02 39.432H952.352C952.352 38.184 952.352 36.936 952.352 35.688C952.352 34.44 952.664 32.88 952.664 31.632H1005.7ZM1110.54 53.784L1113.66 44.736H1157.65L1154.53 53.784H1110.54ZM1115.53 39.432L1118.65 31.632H1162.64L1159.52 39.432H1115.53ZM1005.39 19.464C1005.39 20.712 1005.08 21.648 1005.08 22.272C1005.08 23.208 1005.08 24.144 1005.39 24.768H953.288C953.288 23.832 953.6 22.896 953.912 21.96L954.536 19.464H1005.39ZM1167.01 19.464L1165.14 24.768H1121.14L1123.02 19.464H1167.01ZM1137.12 153L1162.08 84.36H1206.39L1191.72 124.608H1289.69C1293.43 123.984 1296.55 123.048 1299.05 122.112C1301.55 121.176 1303.73 119.928 1305.6 118.68C1307.47 117.432 1309.03 115.56 1310.28 113.688C1311.53 111.816 1313.09 109.632 1314.65 106.824L1322.76 84.36H1366.75L1351.15 127.416C1349.91 129.912 1347.72 132.72 1344.6 135.84C1341.17 138.96 1337.43 141.456 1333.06 143.952C1328.69 146.448 1324.01 148.632 1319.64 150.504C1314.96 152.376 1310.91 153 1307.47 153H1137.12ZM1179.87 39.432C1181.11 38.184 1182.36 36.624 1183.92 35.376C1185.48 34.128 1187.04 32.88 1188.91 31.632H1386.1L1382.98 39.432H1179.87ZM1336.18 47.856H1236.96C1231.03 49.728 1226.67 51.6 1223.55 53.784H1173.31L1176.12 45.984L1176.43 44.736H1381.11L1377.99 53.784H1333.99L1336.18 47.856ZM1390.47 19.464L1388.59 24.768H1201.08C1204.51 23.208 1208.26 21.96 1212 21.024C1215.75 20.088 1219.49 19.464 1222.61 19.464H1390.47ZM1162.71 83.112L1166.76 71.256H1211.07L1207.01 83.112H1162.71ZM1323.39 83.112L1327.44 71.256H1371.43L1367.38 83.112H1323.39ZM1213.56 64.704L1212.31 68.448H1168.01L1171.75 58.152H1218.55C1217.62 59.088 1216.68 60.024 1216.06 60.96C1215.12 62.208 1214.19 63.456 1213.56 64.704ZM1328.69 68.448L1332.43 58.152H1376.43L1372.68 68.448H1328.69ZM1421.3 107.136C1420.05 112.752 1420.05 116.496 1421.3 118.992C1422.55 121.488 1426.6 123.36 1433.15 124.92H1532.68L1547.35 84.36H1591.34L1566.38 153H1396.34C1391.35 153 1387.29 152.064 1383.55 149.88C1379.8 148.008 1376.99 145.512 1374.81 142.704C1372.63 139.896 1371.07 136.776 1370.44 133.656C1369.51 130.536 1369.51 128.04 1370.13 126.168L1385.42 84.36H1429.41L1421.3 107.136ZM1386.04 83.112L1390.1 71.256H1434.09L1430.03 83.112H1386.04ZM1547.97 83.112L1552.03 71.256H1596.02L1591.96 83.112H1547.97ZM1391.35 68.448L1395.09 58.152H1439.08L1435.34 68.448H1391.35ZM1553.27 68.448L1557.02 58.152H1601.01L1597.27 68.448H1553.27ZM1558.58 53.784L1561.7 44.736H1605.69L1602.57 53.784H1558.58ZM1396.65 53.784L1399.77 44.736H1443.76L1440.64 53.784H1396.65ZM1401.64 39.432L1404.76 31.632H1448.75L1445.63 39.432H1401.64ZM1563.57 39.432L1566.69 31.632H1610.68L1607.56 39.432H1563.57ZM1409.13 19.464H1453.12L1451.25 24.768H1407.26L1409.13 19.464ZM1569.19 24.768L1571.06 19.464H1615.05L1613.18 24.768H1569.19ZM1820.88 84.36V89.04H1784.69C1789.06 95.904 1792.8 103.392 1795.61 112.128C1798.42 120.864 1799.98 129.6 1799.98 138.024C1799.98 143.64 1799.04 148.632 1797.48 153H1748.5C1749.75 143.016 1750.06 135.528 1750.06 129.912C1750.06 124.608 1749.44 121.176 1748.81 119.304C1747.88 117.432 1746.63 115.248 1745.38 113.064C1743.82 110.88 1742.26 108.696 1740.39 106.824C1738.52 104.952 1736.33 103.704 1734.46 102.456C1732.28 101.208 1730.4 100.584 1728.53 100.584H1648.04L1629 153H1585.01L1609.97 84.36H1820.88ZM1658.33 72.192H1762.54V71.256H1820.26C1820.88 75.624 1821.2 79.368 1821.2 83.112H1610.6L1614.65 71.256H1658.64L1658.33 72.192ZM1798.11 31.632C1801.23 34.752 1803.72 37.56 1805.6 39.432H1626.2L1629.32 31.632H1798.11ZM1809.65 44.736C1810.59 46.296 1811.52 47.856 1812.15 49.104C1812.77 50.664 1813.71 52.224 1814.96 53.784H1758.17C1756.3 51.912 1754.74 50.352 1753.18 49.728C1751.62 49.104 1750.06 48.168 1748.5 47.544H1667.38L1665.2 53.784H1621.2L1624.32 44.736H1809.65ZM1633.68 19.464H1762.85C1771.28 19.464 1779.39 21.336 1786.88 24.768H1631.81L1633.68 19.464ZM1816.83 58.152C1817.45 60.024 1817.76 61.584 1818.39 63.456C1819.01 65.328 1819.32 66.888 1819.95 68.448H1762.85C1762.85 65.328 1762.23 61.896 1760.98 58.152H1816.83ZM1615.9 68.448L1619.64 58.152H1663.64L1659.89 68.448H1615.9Z" fill="url(#paint1_linear_9127_17349)"/>
</g>
<defs>
<filter id="filter0_di_9127_17349" x="43.8516" y="207.439" width="1768.87" height="162.549" filterUnits="userSpaceOnUse" color-interpolation-filters="sRGB">
<feFlood flood-opacity="0" result="BackgroundImageFix"/>
<feColorMatrix in="SourceAlpha" type="matrix" values="0 0 0 0 0 0 0 0 0 0 0 0 0 0 0 0 0 0 127 0" result="hardAlpha"/>
<feOffset dy="4"/>
<feGaussianBlur stdDeviation="2"/>
<feComposite in2="hardAlpha" operator="out"/>
<feColorMatrix type="matrix" values="0 0 0 0 0.891667 0 0 0 0 0.182049 0 0 0 0 0.607819 0 0 0 1 0"/>
<feBlend mode="normal" in2="BackgroundImageFix" result="effect1_dropShadow_9127_17349"/>
<feBlend mode="normal" in="SourceGraphic" in2="effect1_dropShadow_9127_17349" result="shape"/>
<feColorMatrix in="SourceAlpha" type="matrix" values="0 0 0 0 0 0 0 0 0 0 0 0 0 0 0 0 0 0 127 0" result="hardAlpha"/>
<feOffset dy="4"/>
<feGaussianBlur stdDeviation="2"/>
<feComposite in2="hardAlpha" operator="arithmetic" k2="-1" k3="1"/>
<feColorMatrix type="matrix" values="0 0 0 0 0.245833 0 0 0 0 0.421806 0 0 0 0 1 0 0 0 0.8 0"/>
<feBlend mode="normal" in2="shape" result="effect2_innerShadow_9127_17349"/>
</filter>
<filter id="filter1_di_9127_17349" x="62.4531" y="19.4648" width="1762.74" height="141.535" filterUnits="userSpaceOnUse" color-interpolation-filters="sRGB">
<feFlood flood-opacity="0" result="BackgroundImageFix"/>
<feColorMatrix in="SourceAlpha" type="matrix" values="0 0 0 0 0 0 0 0 0 0 0 0 0 0 0 0 0 0 127 0" result="hardAlpha"/>
<feOffset dy="4"/>
<feGaussianBlur stdDeviation="2"/>
<feComposite in2="hardAlpha" operator="out"/>
<feColorMatrix type="matrix" values="0 0 0 0 0.891667 0 0 0 0 0.182049 0 0 0 0 0.607819 0 0 0 1 0"/>
<feBlend mode="normal" in2="BackgroundImageFix" result="effect1_dropShadow_9127_17349"/>
<feBlend mode="normal" in="SourceGraphic" in2="effect1_dropShadow_9127_17349" result="shape"/>
<feColorMatrix in="SourceAlpha" type="matrix" values="0 0 0 0 0 0 0 0 0 0 0 0 0 0 0 0 0 0 127 0" result="hardAlpha"/>
<feOffset dy="4"/>
<feGaussianBlur stdDeviation="2"/>
<feComposite in2="hardAlpha" operator="arithmetic" k2="-1" k3="1"/>
<feColorMatrix type="matrix" values="0 0 0 0 0.245833 0 0 0 0 0.421806 0 0 0 0 1 0 0 0 0.8 0"/>
<feBlend mode="normal" in2="shape" result="effect2_innerShadow_9127_17349"/>
</filter>
<linearGradient id="paint0_linear_9127_17349" x1="906" y1="196" x2="906" y2="362" gradientUnits="userSpaceOnUse">
<stop stop-color="#1B4CFA"/>
<stop offset="1" stop-color="#F5A1FC"/>
</linearGradient>
<linearGradient id="paint1_linear_9127_17349" x1="932" y1="0" x2="932" y2="172" gradientUnits="userSpaceOnUse">
<stop stop-color="#1B4CFA"/>
<stop offset="1" stop-color="#F5A1FC"/>
</linearGradient>
</defs>
</svg>
