<svg xmlns="http://www.w3.org/2000/svg" width="1826" height="370" fill="none"><g filter="url(#a)"><path fill="url(#b)" d="m321.31 207.44-.648 1.944 5.184 8.1-12.636 34.992H94.834l-5.184-8.1h-1.944l13.284-36.936zm-187.596 56.7 5.184 8.1-16.2 44.388h89.424c5.508-1.62 10.044-3.564 13.284-6.156 3.24-2.268 6.156-5.184 8.748-9.072l14.256-39.204h53.136l-.972 1.944 5.184 8.1-21.708 59.94c-2.268 3.564-5.508 7.128-9.396 10.368-3.888 3.564-8.424 6.804-13.284 9.72s-10.044 5.184-15.228 7.128-10.044 2.592-14.58 2.592H54.982l-5.184-8.1h-1.944l33.372-91.692h53.46zm-30.132-52.812-10.692 29.16h212.544l10.692-29.16zm25.596 54.756H83.494L53.038 350h173.664c3.888 0 8.424-.648 13.284-2.592 4.86-1.62 9.72-3.888 14.256-6.48a87.5 87.5 0 0 0 12.636-8.748q5.832-4.86 8.748-9.72l20.412-56.376h-45.36l-13.284 36.936c-3.24 4.536-6.48 8.1-10.368 10.692q-5.832 4.374-14.58 6.804H109.414zm214.18-58.644h52.488l-.648 1.944 5.184 8.1-12.636 34.992h-50.544l-5.184-8.1h-1.944zm31.752 56.7 5.184 8.1-32.4 89.748H297.35l-5.184-8.1h-1.944l33.372-91.692h52.488zm-39.852-23.652h44.712l10.692-29.16H345.95zm35.316 25.596h-44.712L295.406 350h44.712zm267.775-58.644-.648 1.944 5.184 8.1-12.636 34.992H411.873l-5.184-8.1h-1.944l1.944-5.832c2.592-5.832 6.48-10.692 11.34-14.58 4.536-3.888 9.72-6.804 14.904-9.396s10.044-4.212 14.904-5.508c4.86-.972 9.072-1.62 12.312-1.62zm-155.52 92.016h-1.944l13.608-37.26h104.328c3.24.648 6.48 1.944 9.72 4.536s5.508 6.48 7.128 11.34l1.62 2.592h-.324l.648.324c2.268 3.888 3.564 8.748 4.212 14.58.324 6.156-.972 13.284-3.888 21.06v.648c-2.268 5.832-5.508 11.664-9.72 16.848-4.212 5.508-9.072 10.368-14.256 14.256-5.508 4.212-11.34 7.452-17.172 10.044a41.5 41.5 0 0 1-16.848 3.564h-187.92l-5.184-8.1h-1.944l33.372-91.692h53.46l-.972 1.944 5.184 8.1-16.2 44.388h107.568c3.564 0 6.48-.972 8.424-3.24 1.944-1.944 2.916-3.564 3.564-4.86l.324-.972h-71.604zm-23.976-88.128c-2.916 0-6.48.648-11.016 1.62s-9.072 2.592-13.608 4.536c-4.86 2.268-9.396 5.184-13.608 8.424-4.212 3.564-7.452 7.776-10.044 12.96l-.648 1.62h212.544l10.692-29.16zM555.081 350c5.184 0 10.368-.972 15.876-3.24s10.692-5.508 15.876-9.396c4.86-3.888 9.396-8.1 13.284-13.284 3.888-4.86 7.128-10.044 9.072-15.876l.324-.648c1.944-6.48 3.24-11.988 3.24-17.172 0-4.86-.972-9.072-2.268-12.636s-3.24-6.48-5.832-8.424-5.184-2.916-7.776-3.24H496.761l-10.692 29.484h69.66c4.86 0 7.452 1.62 8.1 4.536.324 3.24 0 5.832-.648 8.424-.648.648-1.296 1.944-1.944 3.24-.972 1.296-1.944 2.592-3.24 3.888s-2.916 2.592-4.86 3.564-4.536 1.296-7.128 1.296H426.453l19.764-54.432h-45.684L370.077 350zm116.706-142.56h52.488l-.648 1.944 5.184 8.1-12.636 34.992h-50.544l-5.184-8.1h-1.944zm31.752 56.7 5.184 8.1-32.4 89.748h-50.544l-5.184-8.1h-1.944l33.372-91.692h52.488zm-39.852-23.652h44.712l10.692-29.16h-44.712zm35.316 25.596h-44.712L623.835 350h44.712zm130.089-21.708h-1.944l2.268-6.48c1.944-3.24 4.536-6.804 8.424-10.692 3.888-3.564 8.1-6.804 12.96-9.72s10.044-5.184 15.552-7.128a46.2 46.2 0 0 1 16.2-2.916h178.198l-.65 1.944 5.19 8.1-12.64 34.992H834.276zm33.048 72.252h158.44l-.65 1.944 5.18 8.1-12.63 35.316H794.424l-5.184-8.1h-1.944l33.372-91.692h53.46l-.972 1.944 5.184 8.1zm182.74-76.14 10.69-29.16H881.256c-5.184 0-10.044.972-14.904 2.592-5.184 1.944-9.72 3.888-13.932 6.48q-6.804 3.888-11.664 8.748-5.346 4.86-7.776 9.72l-.648 1.62zM1004.7 350l10.69-29.484H848.856l19.764-54.432h-45.684L792.48 350zm298.42-142.56-.65 1.944 5.18 8.1-12.63 34.992h-218.38l-5.18-8.1h-1.95l1.95-5.508c1.29-3.888 4.21-7.776 8.42-11.664 3.89-3.888 8.75-7.128 13.93-10.044 5.19-2.916 10.37-5.184 15.88-7.128 5.51-1.62 10.69-2.592 15.23-2.592zm-198.29 109.188h88.45c6.81-1.296 11.67-2.916 14.26-4.86s5.18-5.508 7.77-10.044l14.58-39.528h53.46l-.97 1.944 5.19 8.1-21.71 60.264c-1.3 3.24-3.57 6.48-7.45 9.72-3.89 3.24-8.1 6.48-12.96 9.396-5.19 3.24-10.05 5.508-15.23 7.452-5.19 1.944-9.72 2.916-13.61 2.916h-179.82l-5.18-8.1h-1.95l33.37-91.692h53.79l-.97 1.944 5.18 8.1zm18.79-105.3c-4.21 0-8.75.972-13.93 2.268-5.18 1.62-10.04 3.564-14.58 6.156s-8.75 5.832-12.31 9.072c-3.89 3.24-6.16 6.804-7.45 10.044l-.65 1.62h212.54l10.69-29.16zM1211.75 350c3.56 0 7.78-.648 12.64-2.592 4.53-1.944 9.39-4.212 13.93-6.804 4.53-2.592 8.42-5.184 11.99-8.424 3.24-3.24 5.5-6.156 6.8-8.748l20.74-57.348h-45.69l-12.96 35.964c-1.62 2.916-3.24 5.184-4.53 7.128-1.3 1.944-2.92 3.888-4.86 5.184-1.95 1.296-4.22 2.592-6.81 3.564a51.8 51.8 0 0 1-9.72 2.592h-101.73l19.76-54.432h-46.01L1034.85 350zm113.42-142.56h138.02c12.31 0 23 3.564 32.72 10.692q14.1 10.692 24.3 26.244h-1.29l5.18 8.1h-205.09l-5.18-8.1h-1.95zm200.23 54.756c0 1.944 0 2.916.32 3.564l4.21 6.48c1.3 7.776 1.3 15.552.65 23.328h-34.02c2.59 4.86 5.19 10.044 7.13 15.876s3.24 11.664 4.21 17.496c.65 5.832.97 11.664.65 17.496s-1.3 11.016-2.92 15.552h-56.05l-5.18-8.1h-1.95q1.95-16.524 1.95-25.272c0-5.508-.33-9.072-.97-11.016-.65-.648-.98-1.296-1.3-1.944s-.65-1.62-.97-2.268c-1.95-1.62-3.57-2.916-5.19-4.212-1.62-.972-3.24-1.62-4.86-1.62h-80.67l-19.77 54.432h-51.51l-5.19-8.1h-1.94l33.37-91.692zm-208.33-21.708h195.37c-5.19-8.1-11.99-14.904-20.41-20.736-8.43-5.508-18.47-8.424-30.14-8.424h-134.13zm-9.4 25.596L1277.21 350h45.69l19.76-54.432h83.59c1.95 0 3.89.648 6.16 1.944 1.94 1.296 4.21 2.592 6.16 4.536 1.94 1.944 3.56 4.212 5.18 6.48 1.3 2.268 2.59 4.536 3.56 6.48.65 1.944 1.3 5.508 1.3 11.016 0 5.832-.32 13.608-1.62 23.976h50.87c1.62-4.536 2.59-9.72 2.59-15.552 0-8.748-1.62-17.82-4.54-26.892-2.91-9.072-6.8-16.848-11.34-23.976h37.59c.65-5.184.32-11.016-.65-17.496zm432.03-21.708h-1.94l13.28-36.936h53.14l-.65 1.944 5.19 8.1-12.64 34.992h-51.19zm-175.28 0h-1.94l13.28-36.936h30.78c7.13 0 14.58.972 22.36 2.268 7.77 1.62 15.87 3.564 23.97 6.156 7.78 2.592 15.88 5.832 23.65 9.72 7.78 3.888 14.91 7.776 22.04 12.312l-1.3 1.62 5.51 8.1-2.92 4.86H1569.6zm44.06 19.764 5.19 8.1-32.4 89.748h-51.52l-5.18-8.1h-1.95l33.38-91.692h53.46zm174.96 0 5.19 8.1-32.4 89.748h-42.77l-5.18-8.1h-1.62q-6.81-28.188-24.3-51.516c-9.72-10.368-21.06-18.468-34.02-24.948l-4.54-7.128c-1.3 0-2.27-.648-2.92-1.296l3.89-6.804h81.33l3.24 5.184 1.94-5.184h53.14zm4.86-23.652 10.7-29.16h-45.36l-10.7 29.16zm-94.6 0q-10.215-6.318-21.39-11.664c-7.45-3.564-14.9-6.804-22.68-9.396-7.77-2.592-15.23-4.536-22.68-5.832-7.77-1.296-14.9-2.268-21.71-2.268h-26.89l-10.69 29.16zm-89.75 25.596h-45.69L1527.81 350h45.68zm174.96 0h-45.36l-3.57 10.368c-1.29-1.62-2.26-3.24-3.56-5.184-1.3-1.62-2.27-3.24-3.24-5.184h-78.08c8.1 3.888 15.87 9.072 23 14.904s13.28 12.636 19.12 19.764c5.5 7.128 10.36 14.904 14.25 23.328a128.2 128.2 0 0 1 8.75 25.92h38.23z"/></g><g filter="url(#c)"><path fill="url(#d)" d="M126.354 89.04H89.85q.936-1.872 2.808-4.68H286.41l-5.928 16.224h-110.76c-4.992 1.872-9.984 4.368-14.976 8.112s-10.608 8.736-16.536 15.288c-4.368 4.992-8.112 9.672-11.232 14.664s-6.24 9.672-9.36 14.352H66.45c1.248-4.368 4.056-9.048 8.112-14.664q5.616-8.424 14.04-16.848c5.304-5.616 11.232-11.544 17.784-17.16a226 226 0 0 1 19.968-15.288m-32.76-5.928c2.496-3.744 5.304-7.488 9.048-11.856h60.528l-.312.936h127.92l-3.744 10.92zm46.488-43.68c2.184-1.248 4.368-2.808 6.864-4.056 2.184-1.248 4.368-2.496 6.864-3.744h167.232l-3.12 7.8zM121.05 53.784c1.56-1.56 3.432-3.12 5.304-4.68 1.872-1.248 3.744-2.808 5.928-4.368H316.05l-.936 2.808H195.306l-6.24 2.184c-2.184.624-4.68 2.184-7.488 4.056zm48.672-29.016c9.984-3.432 19.656-5.304 28.704-5.304H325.41l-1.872 5.304zm-64.272 43.68 4.992-4.992c1.872-1.872 3.744-3.432 5.616-5.304h59.592c-2.808 1.872-4.992 3.744-6.552 5.304s-2.808 3.12-4.056 4.992zM343.201 153h-43.056l24.96-68.64h43.056zm-17.472-69.888 4.056-11.856h43.056l-4.056 11.856zm5.304-14.664 3.744-10.296h43.056l-3.744 10.296zm5.304-14.664 3.12-9.048h43.056l-3.12 9.048zm4.992-14.352 3.12-7.8h43.056l-3.12 7.8zm7.488-19.968h43.056l-1.872 5.304h-43.056zM574.469 153h-36.816c-2.808-13.728-8.112-26.208-15.6-38.064-7.488-11.544-16.848-21.84-27.456-30.576h104.832zm-168.48 0h-43.992l24.96-68.64h43.992zm60.216-84.552c-4.68-1.56-9.36-2.808-13.728-4.056-4.368-.936-9.048-1.56-13.416-2.184l-2.184 6.24h-43.992l3.744-10.296h139.776l5.304 5.304 5.304 4.992zm26.832 14.664c-3.12-2.184-6.552-4.368-9.672-6.24l-10.296-5.616h76.128c1.56 1.872 2.808 3.744 4.056 5.616s2.184 3.432 3.432 5.304l3.744-10.92h43.68l-4.056 11.856zm24.336-38.376c2.496 1.56 4.68 3.12 6.864 4.368q2.808 2.34 6.552 4.68h-132.6l3.12-9.048zm-25.584-13.104c5.616 2.496 11.232 5.304 16.536 7.8H403.181l3.12-7.8zm-104.208 51.48 4.056-11.856h43.992l-4.056 11.856zm174.096-14.664 3.744-10.296h43.68l-3.744 10.296zm5.304-14.664 3.12-9.048h43.68l-3.12 9.048zm4.992-14.352 3.12-7.8h43.68l-3.12 7.8zM408.797 24.768l1.872-5.304h25.896c10.296 0 21.84 1.872 34.944 5.304zm168.792 0 1.872-5.304h43.68l-1.872 5.304zM797.927 153H593.255l24.96-68.64h43.992l-14.664 40.248h116.688l14.664-40.248h43.992zm34.632-121.368c.936 1.248 1.56 2.808 2.184 4.056.312 1.248.624 2.496 1.248 3.744H634.439l3.12-7.8zM675.623 47.856l-2.184 5.928h-43.992l3.12-9.048h204.048v.936s0 .312.312.312l-2.808 7.8h-50.544c-1.872-2.496-4.68-4.368-9.048-5.928zm133.536-28.392c5.616 0 11.232 1.872 16.536 5.304h-185.64l1.872-5.304zm-190.32 63.648 4.056-11.856h43.992l-4.056 11.856zm160.68 0 4.056-11.856h43.992l-4.056 11.856zm6.552-18.408v-3.432c0-1.248-.312-2.496-.312-3.12h46.8l-3.744 10.296h-43.992zm-161.928 3.744 3.744-10.296h43.992l-3.744 10.296zM1087.76 153H917.408l10.296-28.392h156.936l8.74-24.024H990.728c-4.992-.936-9.672-2.808-13.416-5.616s-7.176-6.24-10.296-10.608H1143.3l-19.35 53.04c-4.37 4.992-9.05 8.736-14.66 11.232-5.62 2.808-12.79 4.368-21.53 4.368m-63.96-80.808h79.87l.31-.936h44l-4.06 11.856H966.392c-2.496-3.12-4.992-7.176-6.864-11.856h60.212c1.25.624 2.5.936 4.06.936m-14.04-14.04c.31 1.872.94 3.744 2.18 5.616 1.25 1.872 2.5 3.432 4.06 4.68h-57.408c-1.248-3.12-2.496-6.552-3.12-10.296zm-3.12-13.416c0 1.248.31 2.184.31 2.808 0 .936.31 1.872.31 2.496 0 .936 0 1.872.63 3.12 0 .624 0 .624.31.624h-53.664c-.624-1.248-.936-2.808-.936-4.368q-.468-1.872-.936-4.68zm98.59 23.712 3.75-10.296h43.99l-3.75 10.296zm-99.53-36.816V36c0 1.248.32 2.496.32 3.432h-53.668v-3.744c0-1.248.312-2.808.312-4.056zm104.84 22.152 3.12-9.048h43.99l-3.12 9.048zm4.99-14.352 3.12-7.8h43.99l-3.12 7.8zm-110.14-19.968c0 1.248-.31 2.184-.31 2.808 0 .936 0 1.872.31 2.496h-52.102c0-.936.312-1.872.624-2.808l.624-2.496zm161.62 0-1.87 5.304h-44l1.88-5.304zM1137.12 153l24.96-68.64h44.31l-14.67 40.248h97.97c3.74-.624 6.86-1.56 9.36-2.496s4.68-2.184 6.55-3.432 3.43-3.12 4.68-4.992 2.81-4.056 4.37-6.864l8.11-22.464h43.99l-15.6 43.056c-1.24 2.496-3.43 5.304-6.55 8.424-3.43 3.12-7.17 5.616-11.54 8.112s-9.05 4.68-13.42 6.552c-4.68 1.872-8.73 2.496-12.17 2.496zm42.75-113.568c1.24-1.248 2.49-2.808 4.05-4.056s3.12-2.496 4.99-3.744h197.19l-3.12 7.8zm156.31 8.424h-99.22c-5.93 1.872-10.29 3.744-13.41 5.928h-50.24l2.81-7.8.31-1.248h204.68l-3.12 9.048h-44zm54.29-28.392-1.88 5.304h-187.51c3.43-1.56 7.18-2.808 10.92-3.744 3.75-.936 7.49-1.56 10.61-1.56zm-227.76 63.648 4.05-11.856h44.31l-4.06 11.856zm160.68 0 4.05-11.856h43.99l-4.05 11.856zm-109.83-18.408-1.25 3.744h-44.3l3.74-10.296h46.8c-.93.936-1.87 1.872-2.49 2.808-.94 1.248-1.87 2.496-2.5 3.744m115.13 3.744 3.74-10.296h44l-3.75 10.296zm92.61 38.688c-1.25 5.616-1.25 9.36 0 11.856s5.3 4.368 11.85 5.928h99.53l14.67-40.56h43.99L1566.38 153h-170.04c-4.99 0-9.05-.936-12.79-3.12-3.75-1.872-6.56-4.368-8.74-7.176s-3.74-5.928-4.37-9.048c-.93-3.12-.93-5.616-.31-7.488l15.29-41.808h43.99zm-35.26-24.024 4.06-11.856h43.99l-4.06 11.856zm161.93 0 4.06-11.856h43.99l-4.06 11.856zm-156.62-14.664 3.74-10.296h43.99l-3.74 10.296zm161.92 0 3.75-10.296h43.99l-3.74 10.296zm5.31-14.664 3.12-9.048h43.99l-3.12 9.048zm-161.93 0 3.12-9.048h43.99l-3.12 9.048zm4.99-14.352 3.12-7.8h43.99l-3.12 7.8zm161.93 0 3.12-7.8h43.99l-3.12 7.8zm-154.44-19.968h43.99l-1.87 5.304h-43.99zm160.06 5.304 1.87-5.304h43.99l-1.87 5.304zm251.69 59.592v4.68h-36.19c4.37 6.864 8.11 14.352 10.92 23.088s4.37 17.472 4.37 25.896c0 5.616-.94 10.608-2.5 14.976h-48.98c1.25-9.984 1.56-17.472 1.56-23.088 0-5.304-.62-8.736-1.25-10.608-.93-1.872-2.18-4.056-3.43-6.24-1.56-2.184-3.12-4.368-4.99-6.24s-4.06-3.12-5.93-4.368c-2.18-1.248-4.06-1.872-5.93-1.872h-80.49L1629 153h-43.99l24.96-68.64zm-162.55-12.168h104.21v-.936h57.72c.62 4.368.94 8.112.94 11.856h-210.6l4.05-11.856h43.99zm139.78-40.56c3.12 3.12 5.61 5.928 7.49 7.8h-179.4l3.12-7.8zm11.54 13.104c.94 1.56 1.87 3.12 2.5 4.368.62 1.56 1.56 3.12 2.81 4.68h-56.79c-1.87-1.872-3.43-3.432-4.99-4.056s-3.12-1.56-4.68-2.184h-81.12l-2.18 6.24h-44l3.12-9.048zm-175.97-25.272h129.17c8.43 0 16.54 1.872 24.03 5.304h-155.07zm183.15 38.688c.62 1.872.93 3.432 1.56 5.304.62 1.872.93 3.432 1.56 4.992h-57.1c0-3.12-.62-6.552-1.87-10.296zM1615.9 68.448l3.74-10.296h44l-3.75 10.296z"/></g><defs><linearGradient id="b" x1="906" x2="906" y1="196" y2="362" gradientUnits="userSpaceOnUse"><stop stop-color="#1B4CFA"/><stop offset="1" stop-color="#F5A1FC"/></linearGradient><linearGradient id="d" x1="932" x2="932" y1="0" y2="172" gradientUnits="userSpaceOnUse"><stop stop-color="#1B4CFA"/><stop offset="1" stop-color="#F5A1FC"/></linearGradient><filter id="a" width="1768.87" height="162.549" x="43.852" y="207.439" color-interpolation-filters="sRGB" filterUnits="userSpaceOnUse"><feFlood flood-opacity="0" result="BackgroundImageFix"/><feColorMatrix in="SourceAlpha" result="hardAlpha" values="0 0 0 0 0 0 0 0 0 0 0 0 0 0 0 0 0 0 127 0"/><feOffset dy="4"/><feGaussianBlur stdDeviation="2"/><feComposite in2="hardAlpha" operator="out"/><feColorMatrix values="0 0 0 0 0.891667 0 0 0 0 0.182049 0 0 0 0 0.607819 0 0 0 1 0"/><feBlend in2="BackgroundImageFix" result="effect1_dropShadow_9127_17349"/><feBlend in="SourceGraphic" in2="effect1_dropShadow_9127_17349" result="shape"/><feColorMatrix in="SourceAlpha" result="hardAlpha" values="0 0 0 0 0 0 0 0 0 0 0 0 0 0 0 0 0 0 127 0"/><feOffset dy="4"/><feGaussianBlur stdDeviation="2"/><feComposite in2="hardAlpha" k2="-1" k3="1" operator="arithmetic"/><feColorMatrix values="0 0 0 0 0.245833 0 0 0 0 0.421806 0 0 0 0 1 0 0 0 0.8 0"/><feBlend in2="shape" result="effect2_innerShadow_9127_17349"/></filter><filter id="c" width="1762.74" height="141.535" x="62.453" y="19.465" color-interpolation-filters="sRGB" filterUnits="userSpaceOnUse"><feFlood flood-opacity="0" result="BackgroundImageFix"/><feColorMatrix in="SourceAlpha" result="hardAlpha" values="0 0 0 0 0 0 0 0 0 0 0 0 0 0 0 0 0 0 127 0"/><feOffset dy="4"/><feGaussianBlur stdDeviation="2"/><feComposite in2="hardAlpha" operator="out"/><feColorMatrix values="0 0 0 0 0.891667 0 0 0 0 0.182049 0 0 0 0 0.607819 0 0 0 1 0"/><feBlend in2="BackgroundImageFix" result="effect1_dropShadow_9127_17349"/><feBlend in="SourceGraphic" in2="effect1_dropShadow_9127_17349" result="shape"/><feColorMatrix in="SourceAlpha" result="hardAlpha" values="0 0 0 0 0 0 0 0 0 0 0 0 0 0 0 0 0 0 127 0"/><feOffset dy="4"/><feGaussianBlur stdDeviation="2"/><feComposite in2="hardAlpha" k2="-1" k3="1" operator="arithmetic"/><feColorMatrix values="0 0 0 0 0.245833 0 0 0 0 0.421806 0 0 0 0 1 0 0 0 0.8 0"/><feBlend in2="shape" result="effect2_innerShadow_9127_17349"/></filter></defs></svg>