<svg xmlns="http://www.w3.org/2000/svg" width="264" height="72" fill="none"><g clip-path="url(#a)"><g filter="url(#b)"><path fill="#fff" fill-rule="evenodd" d="M71.258 30.78h24.027l1.171-7.829L72.59 21.89zm52.975-7.104-22.713-.592q-.478.375-.976.928-.855.953-1.613 2.477-.76 1.529-1.227 3.813l-.079.476h25.546l1.064-7.102zm3.682.096 20.442.534-.971 6.473h-20.519zm48.216 1.257h-.001l.001-.002zm-.001 0-.861 5.749h-25.542l.078-.477q.309-1.428.932-2.859c.415-.953.884-1.808 1.404-2.573q.161-.235.327-.457zm3.635.096 24.131.63-.752 5.024h-25.542l.078-.477q.231-1.525.893-3.002.537-1.198 1.192-2.175m47.714 1.242-21.25-.555-.745 4.964h23.559c-.424-1.647-.948-3.119-1.564-4.41zm28.985.76c1.938.052 3.509 1.602 3.534 3.523v.131h-25.662l.632-4.215z" clip-rule="evenodd"/></g><g filter="url(#c)"><path fill="#fff" fill-rule="evenodd" d="m194.968 48.891 1.557-10.58v-.002h5.49l-2.49 16.873q-.197 1.142-.818 2.525c-.418.921-.896 1.764-1.443 2.526a13 13 0 0 1-1.674 1.955q-.857.811-1.518.81h-21.26l3.66-24.69h5.529l-2.376 16.016h12.227a6.3 6.3 0 0 0 1.187-.81q.487-.427.817-1.047a7.8 7.8 0 0 0 .586-1.479q.254-.856.526-2.097M86.635 38.311h-5.491l-2.375 16.111h-7.555l-1.284 8.58H90.45l1.285-8.58H84.26zm34.407.953q-.446-.856-.955-.954h-12.031l-1.285 8.676h8.373q.893 0 .971 1.336c.054.887.027 1.715-.078 2.476a61 61 0 0 0-.233.907 9 9 0 0 1-.39 1.19 3.9 3.9 0 0 1-.583 1.002q-.351.428-.857.429h-12.071c-.754-.57-1.24-1.177-1.46-1.812q-.332-.952-.137-2.859l1.674-11.343h-5.49l-1.907 12.965a66 66 0 0 0-.274 4.529q-.038 1.954.253 3.335.293 1.383.954 2.337c.442.634 1.038 1.145 1.792 1.523h17.755q.934 0 1.926-1.001t1.89-2.717q.895-1.717 1.616-3.907.72-2.194 1.072-4.672l.039-.192q.388-2.86.388-5.05 0-2.193-.253-3.768-.252-1.57-.701-2.432zm12.205-.954h5.489l-2.375 16.112h7.475l-1.285 8.58h-20.52l1.286-8.58h7.555zm20.831 0h-5.489l-3.659 24.691h25.503l1.284-8.675h-20.014zm72.238 8.198h3.35l.467-3.05a40 40 0 0 0 .077-2.477q-.001-.668-.019-1.335-.018-.668-.058-1.336h-17.755l-1.284 8.676h7.591q.702.192 1.421 1.956a16.7 16.7 0 0 1 1.032 3.763q.158.765.177 3.242.019 2.48-.216 7.054h6.115q.504-3.432.212-8.007t-1.108-8.484zM206.18 63.001h-5.492l3.661-24.69h5.489zm23.367 0h5.489l3.663-24.69h-5.491zm25.656 0h-5.492l3.663-24.69h5.489z" clip-rule="evenodd"/></g><g filter="url(#d)"><g filter="url(#e)"><path fill="#FC83D4" d="M75.526 38.308h-5.489l-.51 2.267a1.9 1.9 0 0 1-1.309 1.4l-6.372 1.94a5.11 5.11 0 0 0-3.581 4.14l-.165 1.12c-.364 1.274-.774 2.32-1.228 3.148a5.8 5.8 0 0 1-1.772 2h-6.228l2.376-17.412-3.325-2.722 13.022-11.773-21.242 11.496 6.055 4.396-3.66 24.69h14.717q.741 0 1.616-.762.88-.762 1.714-1.907c.56-.765 1.064-1.62 1.518-2.574q.682-1.43 1.033-2.859l.346-2.333c.552-3.727 1.916-3.48 6.247-5.057s4.648-1.166 6.24-9.198z"/></g><path fill="#FC83D4" d="m27.355 25.407 17.075-9.455-2.285-2.788 13.348 2.717.652-3.427 5.64 8.425 6.153-3.77-.711 4.356 4.275.268L74.5 7.5l-11.065 7.52L54.703 2l-2.394 9.127L32.41 7.16l5.387 7.311-24.312 12.836 11.138 1.95L6.38 46.13h8.539L4 63h26.068l1.048-7.05H14.919l8.913-14.984h-3.59l14.872-13.971z"/></g></g><defs><filter id="b" width="200.742" height="20.893" x="65.258" y="15.889" color-interpolation-filters="sRGB" filterUnits="userSpaceOnUse"><feFlood flood-opacity="0" result="BackgroundImageFix"/><feColorMatrix in="SourceAlpha" result="hardAlpha" values="0 0 0 0 0 0 0 0 0 0 0 0 0 0 0 0 0 0 127 0"/><feOffset/><feGaussianBlur stdDeviation="3"/><feComposite in2="hardAlpha" operator="out"/><feColorMatrix values="0 0 0 0 0.147167 0 0 0 0 0.00833333 0 0 0 0 1 0 0 0 1 0"/><feBlend in2="BackgroundImageFix" result="effect1_dropShadow_9127_17471"/><feBlend in="SourceGraphic" in2="effect1_dropShadow_9127_17471" result="shape"/><feColorMatrix in="SourceAlpha" result="hardAlpha" values="0 0 0 0 0 0 0 0 0 0 0 0 0 0 0 0 0 0 127 0"/><feOffset dy="2"/><feGaussianBlur stdDeviation="1.5"/><feComposite in2="hardAlpha" k2="-1" k3="1" operator="arithmetic"/><feColorMatrix values="0 0 0 0 0.196241 0 0 0 0 0.182049 0 0 0 0 0.891667 0 0 0 1 0"/><feBlend in2="shape" result="effect2_innerShadow_9127_17471"/></filter><filter id="c" width="200.93" height="36.693" x="63.93" y="32.309" color-interpolation-filters="sRGB" filterUnits="userSpaceOnUse"><feFlood flood-opacity="0" result="BackgroundImageFix"/><feColorMatrix in="SourceAlpha" result="hardAlpha" values="0 0 0 0 0 0 0 0 0 0 0 0 0 0 0 0 0 0 127 0"/><feOffset/><feGaussianBlur stdDeviation="3"/><feComposite in2="hardAlpha" operator="out"/><feColorMatrix values="0 0 0 0 0.147167 0 0 0 0 0.00833333 0 0 0 0 1 0 0 0 1 0"/><feBlend in2="BackgroundImageFix" result="effect1_dropShadow_9127_17471"/><feBlend in="SourceGraphic" in2="effect1_dropShadow_9127_17471" result="shape"/><feColorMatrix in="SourceAlpha" result="hardAlpha" values="0 0 0 0 0 0 0 0 0 0 0 0 0 0 0 0 0 0 127 0"/><feOffset dy="2"/><feGaussianBlur stdDeviation="1.5"/><feComposite in2="hardAlpha" k2="-1" k3="1" operator="arithmetic"/><feColorMatrix values="0 0 0 0 0.196241 0 0 0 0 0.182049 0 0 0 0 0.891667 0 0 0 1 0"/><feBlend in2="shape" result="effect2_innerShadow_9127_17471"/></filter><filter id="d" width="83.531" height="73" x="-2" y="-4" color-interpolation-filters="sRGB" filterUnits="userSpaceOnUse"><feFlood flood-opacity="0" result="BackgroundImageFix"/><feColorMatrix in="SourceAlpha" result="hardAlpha" values="0 0 0 0 0 0 0 0 0 0 0 0 0 0 0 0 0 0 127 0"/><feOffset/><feGaussianBlur stdDeviation="3"/><feComposite in2="hardAlpha" operator="out"/><feColorMatrix values="0 0 0 0 1 0 0 0 0 0.00833333 0 0 0 0 0.603333 0 0 0 1 0"/><feBlend in2="BackgroundImageFix" result="effect1_dropShadow_9127_17471"/><feBlend in="SourceGraphic" in2="effect1_dropShadow_9127_17471" result="shape"/><feColorMatrix in="SourceAlpha" result="hardAlpha" values="0 0 0 0 0 0 0 0 0 0 0 0 0 0 0 0 0 0 127 0"/><feOffset dy="2"/><feGaussianBlur stdDeviation="1.5"/><feComposite in2="hardAlpha" k2="-1" k3="1" operator="arithmetic"/><feColorMatrix values="0 0 0 0 0.891667 0 0 0 0 0.182049 0 0 0 0 0.607819 0 0 0 1 0"/><feBlend in2="shape" result="effect2_innerShadow_9127_17471"/></filter><filter id="e" width="43.828" height="48.582" x="35.703" y="22.416" color-interpolation-filters="sRGB" filterUnits="userSpaceOnUse"><feFlood flood-opacity="0" result="BackgroundImageFix"/><feColorMatrix in="SourceAlpha" result="hardAlpha" values="0 0 0 0 0 0 0 0 0 0 0 0 0 0 0 0 0 0 127 0"/><feOffset dy="4"/><feGaussianBlur stdDeviation="2"/><feComposite in2="hardAlpha" operator="out"/><feColorMatrix values="0 0 0 0 0 0 0 0 0 0 0 0 0 0 0 0 0 0 0.25 0"/><feBlend in2="BackgroundImageFix" result="effect1_dropShadow_9127_17471"/><feBlend in="SourceGraphic" in2="effect1_dropShadow_9127_17471" result="shape"/></filter><clipPath id="a"><path fill="#fff" d="M0 0h264v72H0z"/></clipPath></defs></svg>